<svg width="418" height="347" viewBox="0 0 418 347" fill="none" xmlns="http://www.w3.org/2000/svg">
<path d="M408.712 301.794C401.738 314.186 390.889 322.86 378.024 328.813C377.963 328.837 377.902 328.874 377.842 328.898C360.651 336.795 339.889 339.856 319.867 340.44C300.55 341.011 281.938 339.262 267.893 337.306C253.314 335.277 243.656 333.03 243.291 332.92C242.222 332.592 241.189 332.191 241.189 332.191C240.424 331.912 239.658 331.584 238.917 331.243C238.893 331.243 238.88 331.231 238.856 331.219L238.637 331.11C232.745 328.377 227.837 324.173 224.265 319.046C219.952 312.826 217.644 305.269 218.045 297.384C218.47 289.147 220.365 280.047 225.104 271.215C235.018 252.712 257.59 234.999 280.528 233.395C289.251 232.787 301.473 233.844 313.841 226.154C316.682 224.388 317.623 223.762 320.266 222.087C324.048 219.69 343.434 207.402 366.564 209.99C372.238 210.625 391.162 213.613 404.692 229.459C423.167 251.098 419.365 282.864 408.712 301.794Z" fill="#DFEAF7"/>
<path d="M383.455 317.892C381.45 322.351 379.531 326.079 378.024 328.813C377.963 328.838 377.902 328.875 377.842 328.899C360.651 336.796 339.889 339.857 319.867 340.441C313.294 340.49 307.22 340.198 301.753 339.712C292.86 334.209 288.863 325.813 290.868 319.981C291.403 318.426 292.375 317.042 293.808 315.961C307.099 305.853 328.493 305.586 332.952 294.032C335.916 286.33 343.364 264.85 347.992 251.401C349.426 247.246 359.947 236.227 372.497 236.81C382.933 237.284 389.979 245.995 390.672 246.869C406.307 266.781 389.286 304.844 383.455 317.892Z" fill="#3D71F2"/>
<path d="M363.927 323.994C363.901 323.994 363.873 323.993 363.845 323.99L344.962 321.493C344.616 321.447 344.375 321.131 344.419 320.787C344.465 320.445 344.76 320.21 345.125 320.244L364.008 322.74C364.354 322.786 364.595 323.103 364.55 323.447C364.509 323.764 364.238 323.994 363.927 323.994Z" fill="#002D53"/>
<path d="M262.802 284.242C262.156 267.593 262.389 246.599 267.907 245.412C268.097 245.371 268.756 245.239 269.42 245.581C273.887 247.883 268.729 266.629 262.802 284.242Z" fill="#40C1B0"/>
<path d="M262.802 284.241C254.661 269.968 250.735 267.375 248.692 268.009C247.92 268.249 247.366 268.965 247.162 269.633C245.748 274.242 259.189 282.171 262.802 284.241Z" fill="#40C1B0"/>
<path d="M262.802 284.241C262.802 284.241 270.397 262.38 275.648 263.679C280.898 264.978 262.802 284.241 262.802 284.241Z" fill="#40C1B0"/>
<path d="M272.779 307.731H251.993L250.153 282.283H274.619L272.779 307.731Z" fill="#FF828A"/>
<path d="M319.871 234.332C319.871 234.332 310.994 232.6 312.943 223.614C314.892 214.629 320.738 214.737 320.738 214.737C320.738 214.737 330.373 199.906 348.344 208.891C366.315 217.876 353.107 230.651 363.175 239.203C373.243 247.755 388.124 287.12 355.784 283.406L319.871 234.332Z" fill="#002D53"/>
<path d="M344.4 324.192C343.501 325.699 340.294 330.971 334.814 334.288C318.607 344.116 293.945 329.975 285.878 325.346C278.491 321.106 272.988 316.599 269.428 313.355L243.296 332.915C241.802 332.453 240.344 331.895 238.922 331.238C238.898 331.238 238.886 331.226 238.861 331.214L238.642 331.105C232.75 328.371 227.842 324.168 224.27 319.041C231.972 310.415 251.071 290.211 261.738 289.652C275.308 288.935 310.346 307.511 310.346 307.511L348.834 306.211C348.968 309.346 348.858 316.685 344.4 324.192Z" fill="#004070"/>
<path d="M339.141 255.55C339.141 255.55 323.696 264.932 324.418 268.541C325.14 272.15 325.14 272.15 325.14 272.15L310.345 307.514C315.251 309.182 321.271 310.812 328.244 311.844C336.005 312.993 342.883 313.095 348.465 312.806C350.667 305.789 364.36 261.261 352.494 254.684C351.521 254.145 350.324 253.831 348.831 253.872L339.141 255.55Z" fill="#FFB042"/>
<path d="M294.778 285.852L283.192 281.117C282.433 280.807 281.914 279.862 281.914 278.791V249.081C281.914 247.451 283.08 246.283 284.236 246.755L295.822 251.49C296.581 251.8 297.1 252.745 297.1 253.816V283.526C297.1 285.156 295.934 286.324 294.778 285.852Z" fill="white"/>
<path d="M350.511 277.042C344.339 284.963 338.07 290.37 332.956 294.026C331.462 295.095 330.065 296.006 328.801 296.796C320.442 302.008 317.113 301.886 315.814 301.753C303.981 300.514 298.477 280.832 298.186 279.763L290.204 279.228C290.204 279.228 285.162 273.263 286.183 271.283C287.216 269.303 289.743 268.501 289.743 268.501C289.743 268.501 284.179 266.156 286.961 264.322C289.743 262.475 297.36 265.841 297.36 265.841C297.36 265.841 296.558 261.176 300.823 263.35C305.075 265.513 307.165 278.002 307.165 278.002C311.004 285.935 317.649 285.267 324.271 281.562C334.343 275.949 344.341 263.351 344.341 263.351L350.511 277.042Z" fill="#FFB3AE"/>
<path d="M352.851 278.699C350.627 281.091 347.926 283.688 344.696 286.277C340.506 289.636 336.462 292.151 332.956 294.027C330.514 290.552 326.869 285.353 324.269 281.562C330.26 277.638 334.059 273.572 336.468 270.471C339.394 266.704 341.041 263.367 344.987 262.231C347.334 261.555 350.542 261.645 352.707 263.398C356.077 266.128 356.65 272.678 352.851 278.699Z" fill="#FFB042"/>
<path d="M316.731 256.051C316.731 256.051 315.749 250.931 310.015 255.081C304.281 259.231 301.863 261.008 302.91 262.772C303.956 264.536 310.344 260.711 310.344 260.711" fill="#FFB3AE"/>
<path d="M310.337 268.558V268.575C309.145 268.978 308.323 268.659 307.769 268.005C306.342 266.343 306.477 262.617 306.477 262.617C307.188 262.298 307.898 261.979 308.609 261.661C309.184 263.96 309.761 266.259 310.337 268.558Z" fill="#FFB3AE"/>
<path d="M311.696 268.943C311.159 269.094 310.706 268.943 310.337 268.574V268.557C310.085 268.322 309.867 267.987 309.699 267.6C309.682 267.583 309.682 267.566 309.682 267.566C308.709 265.418 308.608 261.658 308.608 261.658C309.571 260.387 310.533 259.115 311.496 257.844C312.312 259.434 313.129 261.025 313.945 262.615C313.945 262.617 314.566 268.087 311.696 268.943Z" fill="#FFB3AE"/>
<path d="M318.947 286.935L312.234 285.643L314.97 284.183C308.542 283.898 307.77 268.004 307.77 268.004C308.324 268.658 309.146 268.977 310.338 268.574C310.707 268.943 311.16 269.094 311.697 268.943C314.567 268.087 313.946 262.616 313.946 262.616L310.052 261.911C310.102 261.508 310.253 261.072 310.488 260.602L316.681 256.087C317.268 256.02 317.822 256.053 318.309 256.171H318.376C320.558 256.675 322.018 258.756 322.001 260.988V261.34C321.934 270.554 321.665 274.75 323.663 275.673C324.2 275.908 324.452 275.723 324.703 276.009C326.415 277.889 318.947 286.935 318.947 286.935Z" fill="#FFB3AE"/>
<path d="M318.056 269.296C317.994 269.296 317.928 269.289 317.864 269.273C317.154 269.106 315.401 268.531 314.45 266.796C313.401 264.862 313.811 262.386 315.464 260.63C315.782 260.292 316.313 260.276 316.651 260.594C316.989 260.912 317.005 261.445 316.687 261.781C315.548 262.989 315.233 264.721 315.923 265.993C316.547 267.132 317.757 267.524 318.247 267.64C318.699 267.747 318.978 268.197 318.872 268.648C318.782 269.035 318.438 269.296 318.056 269.296Z" fill="#FF7A72"/>
<path d="M311.338 264.331C310.953 264.331 310.604 264.262 310.287 264.125C309.89 263.953 308.989 263.379 309.22 261.791C309.287 261.33 309.72 261.022 310.172 261.081C310.631 261.148 310.947 261.574 310.882 262.033C310.848 262.267 310.856 262.541 310.956 262.584C311.176 262.679 311.871 262.802 313.539 261.882C314.644 261.277 315.542 260.558 315.55 260.551C315.904 260.267 316.438 260.3 316.732 260.643C317.025 260.989 317.011 261.489 316.675 261.794L316.111 261.173L316.668 261.801C316.561 261.893 315.58 262.679 314.349 263.353C313.166 264.007 312.171 264.331 311.338 264.331Z" fill="#FF7A72"/>
<path d="M310.487 261.442C310.364 261.442 310.241 261.416 310.123 261.36C309.705 261.158 309.53 260.657 309.73 260.239C310.563 258.508 312.57 256.214 315.494 255.445C315.878 255.347 316.233 255.291 316.59 255.253C317.042 255.21 317.465 255.536 317.514 255.997C317.563 256.458 317.231 256.872 316.77 256.921C316.488 256.952 316.208 256.995 315.913 257.068C313.702 257.65 311.973 259.445 311.244 260.966C311.099 261.266 310.799 261.442 310.487 261.442Z" fill="#FF7A72"/>
<path d="M324.27 282.399C323.983 282.399 323.704 282.254 323.547 281.99C323.311 281.592 323.44 281.077 323.839 280.839C323.933 280.783 333.258 275.164 338.305 266.589C338.539 266.187 339.056 266.058 339.454 266.292C339.852 266.526 339.987 267.042 339.751 267.442C334.483 276.396 325.095 282.044 324.699 282.28C324.563 282.362 324.416 282.399 324.27 282.399Z" fill="#FF7A72"/>
<path d="M348.838 253.873C347.294 255.417 336.771 265.907 332.541 265.839C332.306 265.839 331.836 265.805 331.618 265.503C330.342 263.758 339.137 255.55 339.137 255.55C338.986 254.828 338.818 254.124 338.667 253.402L338.029 250.515C337.475 251.069 336.636 251.841 335.511 252.646C334.085 253.687 330.795 255.902 328.093 255.986C323.041 256.12 319.651 245.95 319.651 245.95C318.845 245.682 318.04 245.43 317.217 245.161C317.821 243.382 318.409 241.603 318.996 239.824C316.982 234.688 318.996 224.367 318.996 224.367L319.869 221.077C320.876 222.705 324.249 227.723 330.979 230.291C337.071 232.607 342.392 231.55 344.339 231.08C344.994 234.437 345.665 237.777 346.319 241.133V241.15C346.789 243.533 347.259 245.933 347.746 248.316C348.099 250.164 348.468 252.027 348.838 253.873Z" fill="#FFB3AE"/>
<path d="M348.482 237.49C347.402 240.773 344.987 242.929 343.088 242.304C341.189 241.679 340.524 238.51 341.604 235.227C342.684 231.944 345.099 229.789 346.998 230.414C348.898 231.039 349.562 234.207 348.482 237.49Z" fill="#FFB3AE"/>
<path d="M347.747 248.318L338.667 253.403L338.029 250.516L346.32 241.151C346.79 243.535 347.26 245.935 347.747 248.318Z" fill="#FF7A72"/>
<path d="M379.348 325.886L377.841 328.899C360.65 336.796 339.888 339.856 319.866 340.44C300.549 341.011 281.937 339.262 267.892 337.306C268.949 333.236 273.262 323.541 290.866 319.982C293.174 319.52 295.701 319.156 298.483 318.925C328.48 316.457 379.348 325.886 379.348 325.886Z" fill="#3D71F2"/>
<path d="M178.964 314.649C176.265 320.217 171.697 325.2 165.733 329.466C136.25 350.625 72.7537 354.74 34.6637 329.466C28.3787 325.313 22.7907 320.349 18.1667 314.536C5.82266 299.039 -1.48234 275.332 0.253662 252.946C0.970662 243.754 2.04666 232.127 10.4837 222.028C27.5087 201.681 58.9177 206.286 60.5027 206.55C82.4927 210.117 82.8697 223.236 114.675 243.395C150.047 265.837 170.187 262.666 178.87 282.712C182.852 291.885 183.834 304.569 178.964 314.649Z" fill="#DFEAF7"/>
<path d="M65.6407 321.835L73.0187 288.723C74.8687 280.419 80.4307 273.425 88.1057 269.753L109.878 259.336L132.216 268.627C141.197 272.363 147.759 280.287 149.755 289.807L156.469 321.835H65.6407Z" fill="#3D71F2"/>
<path d="M96.0797 311.247C96.0797 311.247 101.903 303.613 104.704 304.1C107.504 304.587 112.679 313.718 112.679 313.718H135.771L136.42 307.874C136.42 307.874 151.193 310.553 156.468 321.835H98.6756L96.0797 311.247Z" fill="#FFB0B3"/>
<path d="M136.42 308.582C136.061 308.582 135.753 308.311 135.716 307.946L133.711 288.234C133.672 287.845 133.954 287.497 134.343 287.458C134.736 287.427 135.08 287.701 135.119 288.09L137.124 307.802C137.163 308.191 136.881 308.539 136.492 308.578C136.467 308.58 136.443 308.582 136.42 308.582Z" fill="#002D53"/>
<path d="M99.5287 256.007V271.348C99.5287 271.348 98.4327 280.845 104.521 279.992C110.609 279.14 117.067 262.325 117.067 262.325L116.062 247.403L99.5287 256.007Z" fill="#FFB0B3"/>
<path d="M116.846 258.948L99.5367 270.046V256.003L116.053 247.396L116.846 258.948Z" fill="#FF7A72"/>
<path d="M116.987 245.238C121.527 233.511 118.56 221.432 110.362 218.258C102.164 215.085 91.8382 222.019 87.2988 233.746C82.7594 245.472 85.7255 257.552 93.9237 260.725C102.122 263.898 112.448 256.965 116.987 245.238Z" fill="#FFB3AE"/>
<path d="M119.002 236.699C119.002 236.699 110.527 232.062 105.901 221.267C105.901 221.267 84.2287 238.231 79.1147 227.842C74.0007 217.453 86.6637 209.254 88.1247 216.316C88.1247 216.316 99.7987 197.404 119.002 209.985C138.205 222.566 119.002 236.699 119.002 236.699Z" fill="#002D53"/>
<path d="M122.143 241.794C120.909 245.233 118.279 247.437 116.27 246.715C114.261 245.993 113.631 242.621 114.865 239.182C116.099 235.743 118.729 233.539 120.739 234.26C122.749 234.981 123.377 238.355 122.143 241.794Z" fill="#FFB3AE"/>
<path d="M46.9336 293.749H26.2336V321.841H46.9336V293.749Z" fill="#6190E5"/>
<path d="M18.3766 307.89C18.3766 310.336 20.3716 312.317 22.8176 312.317C24.1976 312.317 25.4276 311.688 26.2336 310.705V316.662C25.1816 317.086 24.0206 317.304 22.8176 317.304C17.6116 317.304 13.3896 313.096 13.3896 307.89C13.3896 302.684 17.6116 298.462 22.8176 298.462C24.0196 298.462 25.1816 298.681 26.2336 299.104V305.061C25.4276 304.077 24.1976 303.449 22.8176 303.449C20.3716 303.45 18.3766 305.431 18.3766 307.89Z" fill="#6190E5"/>
<path d="M32.0367 272.751C34.5827 268.863 38.2877 265.72 40.1557 261.464C42.7237 255.614 41.3727 248.725 43.3327 242.644C46.1767 233.821 55.1687 228.623 60.4397 220.997C66.1777 212.695 67.0717 201.283 62.6957 192.189C60.6987 188.038 57.5597 184.282 53.3667 182.372C48.3957 180.107 42.3377 180.744 37.6597 183.565C32.9817 186.386 29.6747 191.211 28.2027 196.471C24.5737 209.441 31.5917 223.424 28.8057 236.601C27.1497 244.436 22.1567 251.251 20.4717 259.08C19.0067 265.89 20.3857 273.175 23.9037 279.152C24.9337 280.903 27.8037 286.434 29.3357 282.629C29.9167 281.187 29.5587 279.414 29.8727 277.895C30.2487 276.069 31.0167 274.307 32.0367 272.751Z" fill="#F1F3F6"/>
<path d="M176.632 321.835H14.7487V329.465H176.632V321.835Z" fill="#D18C7E"/>
<path d="M165.732 329.466C136.249 350.625 72.7527 354.74 34.6627 329.466H165.732Z" fill="#BC7F72"/>
<path d="M101.822 318.168C102.317 320.184 101.023 321.834 98.9456 321.834H50.9766C48.9006 321.834 46.7966 320.184 46.3026 318.168L37.5496 282.482C37.0546 280.465 38.3486 278.816 40.4256 278.816H88.3946C90.4706 278.816 92.5746 280.466 93.0686 282.482L101.822 318.168Z" fill="white"/>
<path d="M74.4027 300.83C74.9377 303.747 73.0057 306.113 70.0877 306.113C67.1697 306.113 64.3717 303.748 63.8377 300.83C63.3027 297.913 65.2347 295.548 68.1527 295.548C71.0687 295.547 73.8677 297.912 74.4027 300.83Z" fill="#DFEAF7"/>
<path d="M378.144 111.882C374.855 117.555 370.894 123.077 366.211 128.346L366.194 128.363C366.144 128.413 366.093 128.481 366.043 128.531C356.745 138.97 343.234 144.659 329.254 144.475L275.43 143.77C275.43 143.77 258.21 138.752 241.024 128.363C241.007 128.363 241.007 128.346 240.99 128.346C231.793 122.774 222.596 115.624 216.101 106.93C210.562 99.5289 206.988 90.952 207.021 81.218C207.021 81.218 204.235 46.695 262.741 44.748C289.477 41.626 284.928 9.87195 342.243 11.031C344.207 11.065 346.12 11.1989 347.949 11.4339C351.071 11.8199 354.041 12.491 356.844 13.381C371.747 18.215 382.17 29.9799 387.205 45.0339C388.162 47.8869 388.934 50.858 389.504 53.929C392.762 71.686 389.355 92.615 378.144 111.882Z" fill="#DFEAF7"/>
<path d="M389.5 53.925H347.957V11.434C351.08 11.828 354.042 12.499 356.843 13.389C371.756 18.219 382.174 29.98 387.208 45.039C388.172 47.884 388.931 50.861 389.5 53.925Z" fill="#F1F3F6"/>
<path d="M387.209 45.0389H356.844V13.3889C371.756 18.2189 382.175 29.9799 387.209 45.0389Z" fill="#DFEAF7"/>
<path d="M369.411 106.936H344.664C344.699 101.459 344.733 95.982 344.768 90.505C344.26 90.219 343.831 89.889 343.468 89.53C338.596 84.71 343.736 72.879 344.336 71.534C345.417 73.122 346.499 74.709 347.58 76.297H354.298C355.188 74.705 356.078 73.113 356.968 71.522C357.683 73.038 358.371 74.744 358.962 76.636C360.666 82.094 360.91 87.023 360.737 90.705C362.896 90.786 364.344 91.46 369.411 106.936Z" fill="#002D53"/>
<path d="M346.588 83.135C346.588 83.854 346.488 84.438 346.364 84.438C346.24 84.438 346.14 83.855 346.14 83.135C346.14 82.416 346.241 81.832 346.364 81.832C346.488 81.832 346.588 82.416 346.588 83.135Z" fill="white"/>
<path d="M353.193 83.135C353.193 83.854 353.093 84.438 352.969 84.438C352.845 84.438 352.745 83.855 352.745 83.135C352.745 82.416 352.845 81.832 352.969 81.832C353.093 81.832 353.193 82.416 353.193 83.135Z" fill="white"/>
<path d="M277.556 106.937H262.364L268.336 82.902H283.528L277.556 106.937Z" fill="#002D53"/>
<path d="M313.896 93.372C314.066 94.968 312.891 96.274 311.286 96.274H232.898C231.293 96.274 229.841 94.968 229.671 93.372L224.475 44.523C224.305 42.927 225.48 41.621 227.085 41.621H305.473C307.078 41.621 308.53 42.927 308.7 44.523L313.896 93.372Z" fill="white"/>
<path d="M313.896 93.372C314.066 94.968 312.891 96.274 311.286 96.274H232.898C231.293 96.274 229.841 94.968 229.671 93.372L224.475 44.523C224.305 42.927 225.48 41.621 227.085 41.621H305.473C307.078 41.621 308.53 42.927 308.7 44.523L313.896 93.372Z" fill="#002D53"/>
<path d="M236.176 92.629C234.571 92.629 233.119 91.323 232.949 89.727L228.528 48.168C228.358 46.572 229.533 45.266 231.138 45.266H302.196C303.801 45.266 305.253 46.572 305.423 48.168L309.843 89.727C310.013 91.323 308.838 92.629 307.233 92.629H236.176Z" fill="#004072"/>
<path d="M253.871 58.265H236.937L236.524 55.623H253.458L253.871 58.265Z" fill="#FF828A"/>
<path d="M275.25 58.265H258.316L257.904 55.623H274.837L275.25 58.265Z" fill="white"/>
<path d="M255.132 65.9211H238.198L237.785 63.2791H254.719L255.132 65.9211Z" fill="white"/>
<path d="M267.838 72.4401H250.904L250.492 69.7981H267.425L267.838 72.4401Z" fill="white"/>
<path d="M277.899 79.883H260.966L260.553 77.241H277.486L277.899 79.883Z" fill="white"/>
<path d="M288.203 79.883H279.736L279.323 77.241H287.79L288.203 79.883Z" fill="#FF828A"/>
<path d="M286.572 72.4401H269.639L269.226 69.7981H286.16L286.572 72.4401Z" fill="#FF828A"/>
<path d="M366.211 128.347L366.194 128.364C366.144 128.414 366.093 128.482 366.043 128.532C356.745 138.971 343.234 144.66 329.254 144.476L275.43 143.771C275.43 143.771 258.21 138.753 241.024 128.364C241.007 128.364 241.007 128.347 240.99 128.347H366.211Z" fill="#BC7F72"/>
<path d="M378.146 111.881C374.854 117.555 370.881 123.095 366.191 128.355H241.033C231.812 122.779 222.603 115.647 216.103 106.936H374.611L378.146 111.881Z" fill="#D18C7E"/>
<path d="M325.439 72.4309C321.786 83.4299 312.519 90.2529 304.74 87.6699C296.961 85.0869 293.616 74.0759 297.269 63.0759C300.922 52.0769 310.189 45.2539 317.968 47.8369C325.746 50.4199 329.091 61.4309 325.439 72.4309Z" fill="#FFB3AE"/>
<path d="M326.184 75.0549H310.451V93.8199H326.184V75.0549Z" fill="#FFB3AE"/>
<path d="M296.087 68.0149C296.087 68.0149 283.098 60.6209 293.419 47.7739C296.087 43.8769 296.087 51.8159 296.087 51.8159C296.087 51.8159 304.948 26.1229 319.969 42.5059C319.969 42.5059 334.166 44.9099 337.321 54.4889C338.342 57.5879 337.785 60.2299 337.228 63.0749C337.032 64.0749 333.416 81.3179 321.275 83.4439C319.576 83.7419 315.615 84.1099 310.449 81.3869C305.661 76.9289 300.874 72.4719 296.087 68.0149Z" fill="#002D53"/>
<path d="M308.914 74.4739C309.223 77.9059 308.316 80.7919 306.89 80.9209C305.463 81.0499 304.057 78.3719 303.748 74.9399C303.439 71.5079 304.346 68.6219 305.772 68.4929C307.199 68.3639 308.605 71.0419 308.914 74.4739Z" fill="#FFB3AE"/>
<path d="M359.453 141.459C359.453 141.459 356.367 143.22 348.033 144.715C338.496 146.428 322.095 147.789 295.598 145.76C289.438 145.298 282.732 144.642 275.443 143.768C275.443 143.768 277.533 134.158 282.526 122.762C289.342 107.187 301.6 88.2709 321.354 86.0229C340.865 83.7999 350.512 102.145 355.201 118.327C358.736 130.513 359.453 141.459 359.453 141.459Z" fill="#3D71F2"/>
<path d="M359.453 141.459C359.453 141.459 356.367 143.22 348.033 144.715L345.494 121.863L355.201 118.328C358.736 130.513 359.453 141.459 359.453 141.459Z" fill="#FFB3AE"/>
<path d="M298.716 128.355L297.671 134.223C296.48 140.82 290.406 145.388 283.736 144.696C281.063 144.417 278.293 144.113 275.438 143.773C266.059 142.728 248.006 116.304 248.006 116.304L243.074 117.264C241.47 122.95 240.268 124.396 239.393 124.347C237.546 124.25 236.611 117.337 237.23 113.231C237.352 112.454 237.57 111.469 238.348 110.813C239.016 110.254 239.915 110.084 240.717 110.072C241.75 110.169 242.26 110.23 242.479 110.242C242.212 110.193 241.519 110.06 240.717 110.072C240.596 110.06 240.462 110.048 240.316 110.036C240.863 105.225 243.888 101.228 248.055 99.831C251.918 98.531 255.332 99.94 256.292 100.366C256.292 100.366 257.483 99.613 260.35 99.88C263.217 100.159 264.736 107.133 264.736 107.133L282.522 122.769C285.838 125.123 291.597 128.282 298.716 128.355Z" fill="#FFB3AE"/>
<path d="M242.478 111.08C242.427 111.08 242.376 111.075 242.326 111.067C242.039 111.013 241.413 110.908 240.73 110.91C240.287 110.966 239.886 110.546 239.879 110.082C239.872 109.62 240.243 109.238 240.707 109.231C241.559 109.233 242.295 109.352 242.605 109.411C243.061 109.495 243.375 109.934 243.292 110.389C243.215 110.795 242.873 111.08 242.478 111.08Z" fill="#FF7A72"/>
<path d="M278.116 131.808C277.982 131.808 277.845 131.775 277.719 131.708C277.311 131.488 277.157 130.98 277.377 130.572L281.783 122.369C282.003 121.961 282.512 121.809 282.919 122.027C283.327 122.247 283.481 122.755 283.261 123.163L278.855 131.366C278.704 131.647 278.414 131.808 278.116 131.808Z" fill="#FF7A72"/>
<path d="M345.495 122.492C345.203 122.492 344.941 122.289 344.879 121.992L341.711 106.936C341.641 106.597 341.857 106.262 342.198 106.19C342.55 106.128 342.872 106.338 342.944 106.677L346.112 121.733C346.182 122.072 345.966 122.407 345.625 122.479C345.58 122.487 345.537 122.492 345.495 122.492Z" fill="#002D53"/>
<path d="M298.716 128.984C298.614 128.984 298.513 128.959 298.418 128.909C298.112 128.744 297.997 128.362 298.162 128.057L303.935 117.348C304.101 117.04 304.484 116.932 304.787 117.092C305.093 117.257 305.208 117.639 305.043 117.944L299.27 128.653C299.157 128.864 298.939 128.984 298.716 128.984Z" fill="#002D53"/>
<path d="M163.002 96.8858C163.361 110.344 149.903 123.349 134.916 132.164C129.669 135.26 124.252 137.827 119.155 139.733C102.753 145.867 88.9553 145.396 78.7623 145.075C78.6113 145.056 78.4793 145.056 78.3283 145.056C78.0073 145.037 77.6673 145.037 77.3463 145.018C60.4713 144.32 43.3893 140.677 28.3653 132.806C27.9693 132.598 27.5723 132.391 27.1763 132.164C14.2283 125.237 1.29831 115.346 0.0903104 99.5848C-0.51369 91.8268 1.9403 83.9368 6.6023 77.7278C11.6423 71.0268 19.0033 67.2708 25.6473 62.4198C30.3283 59.0038 32.4043 54.0578 34.5943 48.9238C36.1233 45.3568 37.7843 41.8268 39.6903 38.4288C40.7473 36.5788 41.8423 34.7858 43.0503 33.0308C51.4873 20.7428 65.4553 11.7398 80.2533 9.62585C95.6743 7.43685 110.397 14.6278 120.495 26.1988C126.592 33.1638 130.782 41.7708 132.594 50.8498C134.085 58.2678 132.556 67.5538 138.332 73.3678C145.033 80.1068 154.659 78.1059 160.114 86.5049C162.832 90.6758 162.946 95.0359 163.002 96.8858Z" fill="#DFEAF7"/>
<path d="M108.701 69.9679C122.4 58.2319 126.472 36.8019 117.102 23.0119C111.7 15.0619 103.375 11.9219 99.2863 10.7149C97.5863 8.23988 93.2773 2.73588 85.9803 0.730881C73.2553 -2.76512 62.2113 7.33888 60.6503 8.76688C46.0283 22.1449 40.5253 54.8179 60.4883 70.7799C73.4583 81.1499 94.5983 82.0509 108.701 69.9679Z" fill="#002D53"/>
<path d="M91.1443 50.4899H75.4403V69.8559H91.1443V50.4899Z" fill="#FFB3AE"/>
<path d="M91.1443 50.4899V59.8139C82.8583 60.4179 78.1203 59.3419 75.4403 57.6999V50.4899H91.1443Z" fill="#FF7A72"/>
<path d="M106.656 38.8599C105.159 42.8469 101.516 45.1669 98.5203 44.0409C95.5243 42.9159 94.3093 38.7719 95.8073 34.7849C97.3043 30.7979 100.947 28.4779 103.943 29.6039C106.939 30.7289 108.153 34.8729 106.656 38.8599Z" fill="#FFB3AE"/>
<path d="M62.4503 38.8599C63.9473 42.8469 67.5903 45.1669 70.5863 44.0409C73.5823 42.9159 74.7973 38.7719 73.2993 34.7849C71.8023 30.7979 68.1593 28.4779 65.1633 29.6039C62.1673 30.7289 60.9533 34.8729 62.4503 38.8599Z" fill="#FFB3AE"/>
<path d="M99.1653 35.1669C101.691 42.1149 93.7193 55.9869 83.5203 55.9869C74.8793 55.9869 67.8753 46.6659 67.8753 35.1669C67.8753 22.6409 80.4443 12.8199 83.5203 14.3469C84.7573 14.9609 83.7413 17.0429 84.8543 20.6169C87.5103 29.1419 97.0123 29.2459 99.1653 35.1669Z" fill="#FFB3AE"/>
<path d="M127.375 124.293H37.7653V106.838C37.7653 82.0928 57.8253 62.0328 82.5703 62.0328C107.315 62.0328 127.375 82.0928 127.375 106.838V124.293Z" fill="#FFB042"/>
<path d="M140.728 96.4408H116.053V124.533H140.728V96.4408Z" fill="#3D71F2"/>
<path d="M148.584 110.583C148.584 113.029 146.589 115.01 144.143 115.01C142.763 115.01 141.533 114.382 140.727 113.398V119.355C141.779 119.779 142.941 119.997 144.143 119.997C149.349 119.997 153.571 115.789 153.571 110.583C153.571 105.377 149.349 101.155 144.143 101.155C142.941 101.155 141.779 101.374 140.727 101.797V107.754C141.533 106.77 142.763 106.142 144.143 106.142C146.59 106.142 148.584 108.123 148.584 110.583Z" fill="#3D71F2"/>
<path d="M158.722 124.533H8.31726V132.163H158.722V124.533Z" fill="#D18C7E"/>
<path d="M34.1322 107.226C33.6152 93.8988 33.8012 77.0938 38.2192 76.1438C38.3712 76.1108 38.8992 76.0058 39.4302 76.2788C43.0062 78.1218 38.8772 93.1269 34.1322 107.226Z" fill="#40C1B0"/>
<path d="M34.1322 107.226C27.6152 95.8008 24.4732 93.7248 22.8372 94.2328C22.2192 94.4248 21.7762 94.9988 21.6122 95.5328C20.4822 99.2218 31.2402 105.569 34.1322 107.226Z" fill="#40C1B0"/>
<path d="M34.1322 107.226C34.1322 107.226 40.2123 89.7269 44.4153 90.7669C48.6183 91.8069 34.1322 107.226 34.1322 107.226Z" fill="#40C1B0"/>
<path d="M24.5912 124.293H41.2292L42.7022 103.923H23.1182L24.5912 124.293Z" fill="#FF828A"/>
<path d="M116.783 120.758C116.783 122.834 115.084 124.533 113.008 124.533H52.1333C50.0573 124.533 48.3583 122.834 48.3583 120.758V82.7728C48.3583 80.6968 50.0573 78.9978 52.1333 78.9978H113.008C115.084 78.9978 116.783 80.6968 116.783 82.7728V120.758Z" fill="white"/>
<path d="M82.5703 108.457C85.4874 108.457 87.8523 106.092 87.8523 103.175C87.8523 100.258 85.4874 97.8928 82.5703 97.8928C79.6531 97.8928 77.2883 100.258 77.2883 103.175C77.2883 106.092 79.6531 108.457 82.5703 108.457Z" fill="#DFEAF7"/>
<path d="M134.916 132.164C129.669 135.26 124.252 137.827 119.155 139.733C102.753 145.867 88.9553 145.396 78.7623 145.075C78.6113 145.056 78.4793 145.056 78.3283 145.056C78.0073 145.037 77.6673 145.037 77.3463 145.018C60.4713 144.32 43.3893 140.677 28.3653 132.806C27.9693 132.598 27.5723 132.391 27.1763 132.164H134.916Z" fill="#BC7F72"/>
</svg>
