<svg width="493" height="319" viewBox="0 0 493 319" fill="none" xmlns="http://www.w3.org/2000/svg">
<g filter="url(#filter0_d_18_1580)">
<path d="M488.447 293.782L468.55 170.427C468.386 169.334 468.014 168.284 467.457 167.338V167.316C466.715 166.02 465.665 164.906 464.389 164.081L442.536 150.138C458.95 137.698 468.961 118.152 468.961 96.9159C468.961 78.5655 461.279 60.8299 447.911 48.2473C434.339 35.4973 416.582 29.1116 397.943 30.2652C363.689 32.3866 336.214 60.9547 335.392 95.2876C334.856 117.202 344.888 137.388 361.775 150.138L350.86 157.12L368.038 168.138L384.535 157.613C387.417 155.781 389.067 152.485 388.778 149.045C388.51 145.627 386.346 142.641 383.196 141.281C364.928 133.474 353.453 115.577 353.928 95.7198C354.524 70.9228 374.36 50.3048 399.075 48.7586C412.565 47.9155 425.397 52.5481 435.2 61.7552C445.004 70.9837 450.422 83.4628 450.422 96.9129C450.422 116.252 438.929 133.656 421.132 141.278C417.982 142.638 415.818 145.624 415.55 149.042C415.261 152.482 416.911 155.778 419.793 157.61L450.915 177.464L467.455 279.994L470.154 296.719C470.897 301.272 474.829 304.505 479.297 304.505C479.772 304.505 480.287 304.483 480.78 304.401C485.832 303.586 489.272 298.828 488.447 293.782ZM157.214 96.919C157.214 78.5686 149.532 60.833 136.143 48.2504C122.589 35.5003 104.835 29.1147 86.1743 30.2682C51.9419 32.3897 24.4665 60.9578 23.6417 95.2906C23.106 117.205 33.1167 137.391 50.0275 150.141L28.1738 164.084C25.9488 165.505 24.427 167.813 24.013 170.427L4.11648 293.782C3.31294 298.828 6.75227 303.586 11.7987 304.41C16.8452 305.214 21.6025 301.775 22.4273 296.728L24.013 286.882L41.6451 177.473L72.7881 157.619C75.6705 155.787 77.3203 152.491 77.0311 149.051C76.742 145.633 74.6021 142.647 71.4488 141.287C53.1806 133.48 41.709 115.583 42.1808 95.7258C42.7774 70.9289 62.6131 50.3109 87.3279 48.7647C100.818 47.9216 113.65 52.5541 123.454 61.7613C133.257 70.9898 138.675 83.4689 138.675 96.919C138.675 116.259 127.182 133.662 109.389 141.284C106.235 142.644 104.074 145.63 103.806 149.048C103.517 152.488 105.146 155.784 108.049 157.616L124.485 168.099L141.642 157.059L130.789 150.138C147.203 137.701 157.214 118.155 157.214 96.919ZM386.392 188.266L361.409 172.366L344.17 161.387L282.626 122.191C301.162 110.162 312.759 89.4619 312.759 66.4547C312.759 48.2047 305.119 30.5543 291.812 18.0326C278.301 5.34649 260.608 -1.01787 242.051 0.132647C209.55 2.15061 182.918 28.1042 180.075 60.5012C177.872 85.7121 189.693 109.088 209.94 122.209L154.082 157.781L148.418 161.384L131.178 172.363L124.157 176.831L106.196 188.263C103.539 189.974 101.91 192.917 101.91 196.089V242.7C101.91 259.711 115.75 273.553 132.743 273.553C141.414 273.553 149.736 269.868 155.564 263.461C161.393 257.054 164.275 248.425 163.454 239.796L159.479 197.924L158.325 185.895L140.775 197.078L141.825 208.221L144.997 241.546C145.325 245.046 144.214 248.385 141.846 250.978C139.478 253.575 136.264 255.014 132.743 255.014C125.967 255.014 120.446 249.493 120.446 242.697V201.175L134.246 192.381L139.993 188.735L157.543 177.552L168.932 170.302L234.019 128.841C237.047 126.905 238.694 123.384 238.219 119.82C237.744 116.256 235.254 113.27 231.815 112.177C210.25 105.38 196.575 84.7838 198.55 62.1265C200.59 38.7906 219.786 20.0901 243.204 18.6261C256.612 17.8013 269.362 22.3759 279.105 31.5405C288.869 40.705 294.223 53.105 294.223 66.4516C294.223 87.5018 280.773 105.873 260.754 112.177C257.315 113.27 254.822 116.256 254.347 119.82C253.872 123.384 255.522 126.905 258.551 128.841L304.44 158.067L335.048 177.552L352.598 188.735L360.176 193.553L372.144 201.175V242.697C372.144 249.493 366.623 255.014 359.826 255.014C356.305 255.014 353.091 253.572 350.723 250.978C348.355 248.382 347.241 245.025 347.573 241.546L350.537 210.363L351.794 197.142L334.244 185.977L332.905 200.045L329.116 239.796C328.291 248.425 331.176 257.035 337.005 263.461C342.834 269.865 351.155 273.553 359.848 273.553C376.841 273.553 390.68 259.714 390.68 242.7V196.089C390.677 192.92 389.049 189.974 386.392 188.266Z" fill="url(#paint0_linear_18_1580)"/>
<path d="M278.94 276.439L267.158 215.081L263.39 195.513C268.908 190.674 272.205 183.61 272.205 176.07C272.205 161.777 260.59 150.138 246.294 150.138C232 150.138 220.383 161.774 220.383 176.07C220.383 183.61 223.679 190.674 229.197 195.513L225.715 213.66L213.644 276.439C213.066 279.468 214.015 282.575 216.198 284.739L239.741 308.282C241.555 310.093 243.923 311 246.291 311C248.659 311 251.03 310.093 252.841 308.282L276.384 284.739C278.569 282.578 279.516 279.468 278.94 276.439ZM246.294 167.688C250.929 167.688 254.697 171.438 254.697 176.092C254.697 180.724 250.929 184.495 246.294 184.495C241.64 184.495 237.89 180.727 237.89 176.092C237.89 171.438 241.64 167.688 246.294 167.688ZM246.294 288.632L232.783 275.121L243.865 217.431L246.297 204.742L248.768 217.635L259.808 275.121L246.294 288.632Z" fill="url(#paint1_linear_18_1580)"/>
<path d="M24.016 170.427V286.881L22.4302 296.728C21.6054 301.774 16.8481 305.214 11.8016 304.41C6.7552 303.585 3.31587 298.828 4.11941 293.782L24.016 170.427Z" fill="url(#paint2_linear_18_1580)"/>
<path d="M480.786 304.41C480.293 304.493 479.775 304.514 479.303 304.514C474.835 304.514 470.9 301.282 470.16 296.728L467.46 280.003V167.341C468.017 168.287 468.389 169.338 468.553 170.43L488.45 293.785C489.272 298.828 485.832 303.586 480.786 304.41Z" fill="url(#paint3_linear_18_1580)"/>
<path opacity="0.46" d="M267.158 215.081C262.441 216.46 256.201 217.678 248.765 217.635L246.294 204.742L243.862 217.431C238.322 216.999 232.247 215.867 225.715 213.663L229.197 195.516C229.197 195.516 246.437 207.986 263.387 195.516L267.158 215.081Z" fill="url(#paint4_linear_18_1580)"/>
<path opacity="0.46" d="M158.325 185.895L159.479 197.924L141.828 208.224L140.778 197.081L158.325 185.895Z" fill="url(#paint5_linear_18_1580)"/>
<path opacity="0.46" d="M334.241 185.98L351.791 197.141L350.534 210.366L332.902 200.045L334.241 185.98Z" fill="url(#paint6_linear_18_1580)"/>
</g>
<defs>
<filter id="filter0_d_18_1580" x="0" y="0" width="492.571" height="319" filterUnits="userSpaceOnUse" color-interpolation-filters="sRGB">
<feFlood flood-opacity="0" result="BackgroundImageFix"/>
<feColorMatrix in="SourceAlpha" type="matrix" values="0 0 0 0 0 0 0 0 0 0 0 0 0 0 0 0 0 0 127 0" result="hardAlpha"/>
<feOffset dy="4"/>
<feGaussianBlur stdDeviation="2"/>
<feComposite in2="hardAlpha" operator="out"/>
<feColorMatrix type="matrix" values="0 0 0 0 0 0 0 0 0 0 0 0 0 0 0 0 0 0 0.25 0"/>
<feBlend mode="normal" in2="BackgroundImageFix" result="effect1_dropShadow_18_1580"/>
<feBlend mode="normal" in="SourceGraphic" in2="effect1_dropShadow_18_1580" result="shape"/>
</filter>
<linearGradient id="paint0_linear_18_1580" x1="246.287" y1="19.4747" x2="246.287" y2="304.521" gradientUnits="userSpaceOnUse">
<stop stop-color="#CCE5FF"/>
<stop offset="1" stop-color="#003366"/>
</linearGradient>
<linearGradient id="paint1_linear_18_1580" x1="246.294" y1="157.819" x2="246.294" y2="311.27" gradientUnits="userSpaceOnUse">
<stop stop-color="#CCE5FF"/>
<stop offset="1" stop-color="#003366"/>
</linearGradient>
<linearGradient id="paint2_linear_18_1580" x1="14.187" y1="289.462" x2="24.6661" y2="213.779" gradientUnits="userSpaceOnUse">
<stop stop-color="white" stop-opacity="0"/>
<stop offset="1" stop-color="white"/>
</linearGradient>
<linearGradient id="paint3_linear_18_1580" x1="481.166" y1="312.257" x2="467.957" y2="207.842" gradientUnits="userSpaceOnUse">
<stop stop-color="white" stop-opacity="0"/>
<stop offset="1" stop-color="white"/>
</linearGradient>
<linearGradient id="paint4_linear_18_1580" x1="246.438" y1="197.77" x2="246.438" y2="214.507" gradientUnits="userSpaceOnUse">
<stop stop-color="#02023B"/>
<stop offset="1" stop-color="#02023B" stop-opacity="0"/>
</linearGradient>
<linearGradient id="paint5_linear_18_1580" x1="147.359" y1="191.794" x2="152.501" y2="201.755" gradientUnits="userSpaceOnUse">
<stop stop-color="#02023B"/>
<stop offset="1" stop-color="#02023B" stop-opacity="0"/>
</linearGradient>
<linearGradient id="paint6_linear_18_1580" x1="343.713" y1="188.454" x2="341.785" y2="202.592" gradientUnits="userSpaceOnUse">
<stop stop-color="#02023B"/>
<stop offset="1" stop-color="#02023B" stop-opacity="0"/>
</linearGradient>
</defs>
</svg>
